<svg viewBox="0 0 1297 4259" fill="none" xmlns="http://www.w3.org/2000/svg">
<g clip-path="url(#clip0)">
<rect width="1297" height="4259" fill="#181C32"/>
<path d="M923.001 298C1404.06 -407.986 1465.15 -356.351 1518.5 -145C1458.53 415.244 887.001 398.5 992.001 862.5C1097 1326.5 1778 1711 1778 1711C1778 1711 815.5 1644 397.5 2108.5C-20.5 2573 2031 2788 2031 2788C2031 2788 1530.5 3074.5 889 3327C480.035 3487.97 75.6333 3882.34 -131.741 4308.71C-151.103 4862.65 -178.181 5437.27 -259 5030C-303.865 4803.91 -249.653 4551.14 -131.741 4308.71C-121.451 4014.29 -113.34 3725.72 -100.5 3593.5C-63.5011 3212.5 1946.5 3057 1296.5 2816.5C646.5 2576 -31.5 2344 -31.5 2128C-31.5 1912 972 1732.5 1154.5 1606.5C1337 1480.5 695.5 336.001 -206.5 1221.5C-1108.5 2107 -206.5 557.5 -206.5 557.5C264.769 752.209 525.66 828.704 923.001 298Z" fill="#FBE6E6"/>
</g>
<defs>
<clipPath id="clip0">
<rect width="1297" height="4259" fill="white"/>
</clipPath>
</defs>
</svg>
